<svg width="24" height="25" viewBox="0 0 24 25" fill="none" xmlns="http://www.w3.org/2000/svg">
<path d="M8.61915 12.7059L9.62578 12.3957L8.74897 11.8119C7.15596 10.7514 6.10469 8.94148 6.10469 6.89531C6.10469 3.64633 8.751 1 12 1C15.2496 1 17.9016 3.64697 17.9016 6.89531C17.9016 8.94117 16.8491 10.7511 15.2543 11.8118L14.3769 12.3954L15.3839 12.7059C20.0802 14.1541 23.5 18.5334 23.5 23.6969L23.5 23.6988C23.5003 23.7784 23.469 23.8548 23.4129 23.9113C23.3571 23.9676 23.2812 23.9995 23.2019 24L0.80313 24L0.801215 24C0.761627 24.0001 0.722392 23.9925 0.685774 23.9774C0.649156 23.9623 0.61589 23.9401 0.587892 23.9121C0.55989 23.8841 0.537708 23.8508 0.522624 23.8142C0.50754 23.7776 0.499851 23.7384 0.500006 23.6988V23.6969C0.500001 18.533 3.92203 14.1537 8.61915 12.7059ZM22.2469 23.4H22.7882L22.7453 22.8603C22.2992 17.2538 17.7431 12.7969 12 12.7969C6.25639 12.7969 1.70857 17.2543 1.26252 22.8603L1.21958 23.4H1.76094H22.2469ZM17.3016 6.89531C17.3016 3.95875 14.9366 1.59375 12 1.59375C9.06257 1.59375 6.70469 3.9596 6.70469 6.89531C6.70469 9.83106 9.06257 12.1969 12 12.1969C14.9366 12.1969 17.3016 9.83191 17.3016 6.89531Z" fill="white" stroke="white"/>
</svg>
